<?xml version="1.0" encoding="UTF-8"?>
<svg xmlns="http://www.w3.org/2000/svg" viewBox="0 0 2600 1090" width="2600" height="1090" role="img" aria-label="Jurjen wijn vanjurjen.nl logo">
  <path fill="#1e2624" fill-rule="evenodd" d="M 895.00 991.00 L 890.00 1017.00 L 876.00 1040.00 L 865.00 1050.00 L 853.00 1057.00 L 831.00 1062.00 L 840.00 1052.00 L 846.00 1041.00 L 853.00 1020.00 L 856.00 1000.00 L 856.00 789.00 L 833.00 780.00 L 829.00 778.00 L 829.00 776.00 L 895.00 776.00 Z M 2287.00 605.00 L 2261.00 605.00 L 2260.00 599.00 L 2277.00 597.00 L 2296.00 588.00 L 2309.00 575.00 L 2318.00 558.00 L 2323.00 532.00 L 2327.00 480.00 L 2328.00 409.00 L 2326.00 370.00 L 2317.00 324.00 L 2309.00 302.00 L 2297.00 280.00 L 2281.00 262.00 L 2271.00 255.00 L 2258.00 249.00 L 2243.00 246.00 L 2227.00 246.00 L 2206.00 251.00 L 2191.00 259.00 L 2178.00 271.00 L 2170.00 282.00 L 2160.00 303.00 L 2154.00 323.00 L 2149.00 356.00 L 2151.00 453.00 L 2155.00 502.00 L 2162.00 552.00 L 2168.00 566.00 L 2182.00 583.00 L 2200.00 594.00 L 2226.00 599.00 L 2226.00 605.00 L 1979.00 605.00 L 1979.00 599.00 L 2000.00 596.00 L 2021.00 585.00 L 2033.00 573.00 L 2042.00 557.00 L 2048.00 525.00 L 2052.00 452.00 L 2050.00 349.00 L 2047.00 318.00 L 2043.00 300.00 L 2035.00 284.00 L 2022.00 270.00 L 2002.00 259.00 L 1979.00 256.00 L 1980.00 249.00 L 2157.00 190.00 L 2160.00 190.00 L 2160.00 195.00 L 2155.00 233.00 L 2152.00 283.00 L 2166.00 256.00 L 2177.00 242.00 L 2191.00 229.00 L 2222.00 211.00 L 2255.00 202.00 L 2296.00 200.00 L 2329.00 205.00 L 2346.00 211.00 L 2365.00 221.00 L 2390.00 243.00 L 2402.00 259.00 L 2413.00 279.00 L 2424.00 309.00 L 2430.00 335.00 L 2435.00 378.00 L 2437.00 502.00 L 2443.00 552.00 L 2449.00 566.00 L 2462.00 582.00 L 2484.00 595.00 L 2507.00 599.00 L 2507.00 605.00 Z M 1501.00 695.00 L 1495.00 711.00 L 1481.00 732.00 L 1468.00 745.00 L 1454.00 755.00 L 1435.00 764.00 L 1408.00 771.00 L 1362.00 773.00 L 1329.00 764.00 L 1301.00 748.00 L 1282.00 733.00 L 1260.00 711.00 L 1247.00 695.00 L 1246.00 691.00 L 1254.00 680.00 L 1273.00 697.00 L 1302.00 712.00 L 1325.00 717.00 L 1349.00 715.00 L 1365.00 709.00 L 1380.00 696.00 L 1389.00 681.00 L 1397.00 656.00 L 1401.00 632.00 L 1404.00 590.00 L 1404.00 315.00 L 1397.00 291.00 L 1381.00 271.00 L 1365.00 261.00 L 1352.00 257.00 L 1337.00 256.00 L 1337.00 250.00 L 1518.00 190.00 L 1518.00 604.00 L 1513.00 655.00 L 1507.00 681.00 Z M 485.00 217.00 L 539.00 200.00 L 529.00 312.00 L 529.00 434.00 L 535.00 480.00 L 546.00 516.00 L 563.00 545.00 L 581.00 561.00 L 605.00 570.00 L 630.00 570.00 L 648.00 565.00 L 665.00 555.00 L 679.00 540.00 L 691.00 518.00 L 699.00 492.00 L 703.00 467.00 L 704.00 407.00 L 699.00 343.00 L 693.00 314.00 L 685.00 295.00 L 680.00 288.00 L 664.00 274.00 L 649.00 267.00 L 628.00 264.00 L 628.00 259.00 L 822.00 200.00 L 815.00 262.00 L 811.00 326.00 L 812.00 434.00 L 822.00 543.00 L 830.00 566.00 L 843.00 582.00 L 865.00 595.00 L 888.00 599.00 L 889.00 604.00 L 693.00 605.00 L 699.00 537.00 L 683.00 565.00 L 662.00 587.00 L 634.00 604.00 L 610.00 612.00 L 585.00 616.00 L 549.00 616.00 L 534.00 614.00 L 504.00 605.00 L 472.00 585.00 L 456.00 568.00 L 441.00 545.00 L 430.00 519.00 L 424.00 497.00 L 418.00 456.00 L 417.00 395.00 L 413.00 338.00 L 411.00 317.00 L 407.00 304.00 L 398.00 289.00 L 387.00 278.00 L 369.00 268.00 L 345.00 264.00 L 345.00 259.00 Z M 1100.00 255.00 L 1088.00 262.00 L 1076.00 275.00 L 1067.00 291.00 L 1062.00 309.00 L 1060.00 393.00 L 1066.00 500.00 L 1072.00 547.00 L 1081.00 569.00 L 1089.00 579.00 L 1100.00 588.00 L 1117.00 596.00 L 1138.00 599.00 L 1138.00 604.00 L 891.00 605.00 L 891.00 599.00 L 914.00 595.00 L 932.00 585.00 L 944.00 573.00 L 953.00 557.00 L 957.00 543.00 L 963.00 454.00 L 961.00 351.00 L 957.00 311.00 L 953.00 297.00 L 947.00 285.00 L 932.00 269.00 L 913.00 259.00 L 891.00 256.00 L 892.00 249.00 L 1071.00 200.00 L 1064.00 269.00 L 1065.00 274.00 L 1068.00 266.00 L 1081.00 247.00 L 1098.00 230.00 L 1126.00 213.00 L 1146.00 206.00 L 1173.00 201.00 L 1207.00 200.00 L 1231.00 203.00 L 1252.00 209.00 L 1271.00 218.00 L 1291.00 233.00 L 1308.00 254.00 L 1319.00 279.00 L 1323.00 301.00 L 1322.00 321.00 L 1317.00 335.00 L 1301.00 354.00 L 1289.00 361.00 L 1273.00 365.00 L 1260.00 365.00 L 1248.00 362.00 L 1232.00 352.00 L 1221.00 339.00 L 1190.00 279.00 L 1179.00 264.00 L 1170.00 256.00 L 1157.00 249.00 L 1144.00 246.00 L 1121.00 247.00 Z M 297.00 380.00 L 296.00 492.00 L 290.00 583.00 L 278.00 649.00 L 269.00 676.00 L 260.00 695.00 L 249.00 712.00 L 233.00 729.00 L 217.00 740.00 L 195.00 749.00 L 174.00 753.00 L 143.00 753.00 L 119.00 747.00 L 96.00 736.00 L 61.00 710.00 L 39.00 687.00 L 28.00 671.00 L 33.00 663.00 L 37.00 661.00 L 50.00 675.00 L 75.00 694.00 L 89.00 701.00 L 106.00 705.00 L 117.00 704.00 L 129.00 699.00 L 143.00 686.00 L 160.00 654.00 L 175.00 599.00 L 185.00 528.00 L 191.00 433.00 L 191.00 276.00 L 180.00 147.00 L 171.00 125.00 L 162.00 114.00 L 152.00 106.00 L 138.00 99.00 L 114.00 95.00 L 114.00 89.00 L 375.00 89.00 L 375.00 95.00 L 361.00 96.00 L 348.00 100.00 L 329.00 112.00 L 316.00 128.00 L 310.00 142.00 L 305.00 177.00 L 301.00 236.00 Z M 2236.00 896.00 L 2240.00 899.00 L 2244.00 907.00 L 2243.00 909.00 L 2182.00 909.00 L 2181.00 914.00 L 2182.00 927.00 L 2187.00 938.00 L 2196.00 946.00 L 2207.00 950.00 L 2218.00 950.00 L 2231.00 945.00 L 2240.00 936.00 L 2243.00 926.00 L 2245.00 925.00 L 2243.00 939.00 L 2238.00 948.00 L 2229.00 957.00 L 2216.00 963.00 L 2202.00 964.00 L 2186.00 959.00 L 2174.00 948.00 L 2167.00 932.00 L 2167.00 916.00 L 2172.00 902.00 L 2182.00 891.00 L 2197.00 884.00 L 2212.00 883.00 L 2228.00 888.00 L 2236.00 894.00 Z M 451.00 935.00 L 380.00 790.00 L 352.00 776.00 L 446.00 776.00 L 446.00 778.00 L 420.00 790.00 L 482.00 915.00 L 486.00 910.00 L 530.00 816.00 L 510.00 776.00 L 584.00 776.00 L 575.00 782.00 L 559.00 788.00 L 558.00 791.00 L 620.00 915.00 L 674.00 802.00 L 674.00 800.00 L 635.00 778.00 L 635.00 776.00 L 720.00 776.00 L 715.00 781.00 L 682.00 801.00 L 606.00 964.00 L 603.00 964.00 L 535.00 825.00 L 533.00 825.00 L 530.00 831.00 L 469.00 963.00 L 465.00 963.00 Z M 1078.00 775.00 L 1093.00 778.00 L 1105.00 785.00 L 1114.00 794.00 L 1120.00 804.00 L 1127.00 830.00 L 1127.00 950.00 L 1154.00 962.00 L 1154.00 964.00 L 1062.00 964.00 L 1062.00 962.00 L 1089.00 950.00 L 1089.00 845.00 L 1087.00 825.00 L 1082.00 811.00 L 1073.00 801.00 L 1060.00 796.00 L 1043.00 796.00 L 1025.00 804.00 L 1013.00 818.00 L 1004.00 842.00 L 1003.00 951.00 L 1024.00 959.00 L 1030.00 962.00 L 1030.00 964.00 L 937.00 964.00 L 939.00 961.00 L 964.00 951.00 L 964.00 789.00 L 939.00 779.00 L 937.00 776.00 L 1003.00 776.00 L 1004.00 822.00 L 1012.00 803.00 L 1023.00 790.00 L 1034.00 782.00 L 1057.00 774.00 Z M 2058.00 897.00 L 2051.00 897.00 L 2051.00 895.00 L 2079.00 884.00 L 2080.00 906.00 L 2084.00 897.00 L 2096.00 886.00 L 2101.00 884.00 L 2115.00 884.00 L 2115.00 900.00 L 2093.00 900.00 L 2084.00 906.00 L 2079.00 916.00 L 2079.00 957.00 L 2090.00 961.00 L 2090.00 963.00 L 2051.00 963.00 L 2051.00 961.00 L 2062.00 957.00 L 2062.00 897.00 Z M 1723.00 521.00 L 1750.00 540.00 L 1777.00 551.00 L 1802.00 556.00 L 1840.00 556.00 L 1861.00 551.00 L 1887.00 539.00 L 1909.00 523.00 L 1927.00 505.00 L 1934.00 495.00 L 1940.00 497.00 L 1927.00 523.00 L 1904.00 554.00 L 1887.00 571.00 L 1868.00 586.00 L 1832.00 605.00 L 1793.00 615.00 L 1746.00 616.00 L 1713.00 611.00 L 1676.00 599.00 L 1645.00 582.00 L 1612.00 554.00 L 1590.00 526.00 L 1569.00 484.00 L 1558.00 443.00 L 1555.00 400.00 L 1559.00 363.00 L 1571.00 323.00 L 1592.00 285.00 L 1623.00 251.00 L 1651.00 231.00 L 1685.00 215.00 L 1733.00 203.00 L 1789.00 200.00 L 1827.00 205.00 L 1860.00 216.00 L 1893.00 236.00 L 1915.00 257.00 L 1926.00 271.00 L 1937.00 288.00 L 1953.00 323.00 L 1963.00 364.00 L 1673.00 436.00 L 1681.00 460.00 L 1693.00 484.00 L 1706.00 503.00 Z M 2131.00 983.00 L 2132.00 890.00 L 2121.00 886.00 L 2121.00 884.00 L 2149.00 884.00 L 2149.00 976.00 L 2143.00 992.00 L 2130.00 1002.00 L 2121.00 1002.00 L 2126.00 998.00 Z M 1477.00 39.00 L 1493.00 55.00 L 1502.00 77.00 L 1502.00 100.00 L 1498.00 113.00 L 1491.00 125.00 L 1475.00 140.00 L 1452.00 149.00 L 1427.00 148.00 L 1407.00 139.00 L 1390.00 121.00 L 1382.00 101.00 L 1382.00 76.00 L 1392.00 53.00 L 1409.00 37.00 L 1419.00 32.00 L 1435.00 28.00 L 1459.00 30.00 Z M 1920.00 938.00 L 1920.00 890.00 L 1909.00 886.00 L 1909.00 884.00 L 1937.00 884.00 L 1937.00 976.00 L 1933.00 989.00 L 1924.00 999.00 L 1915.00 1003.00 L 1909.00 1003.00 L 1914.00 998.00 L 1919.00 985.00 Z M 2544.00 174.00 L 2530.00 170.00 L 2513.00 171.00 L 2496.00 179.00 L 2486.00 191.00 L 2481.00 207.00 L 2482.00 224.00 L 2488.00 238.00 L 2499.00 249.00 L 2514.00 255.00 L 2535.00 255.00 L 2550.00 249.00 L 2562.00 237.00 L 2568.00 221.00 L 2567.00 200.00 L 2560.00 186.00 L 2552.00 178.00 Z M 2267.00 898.00 L 2267.00 890.00 L 2256.00 886.00 L 2256.00 884.00 L 2284.00 884.00 L 2284.00 901.00 L 2294.00 888.00 L 2302.00 884.00 L 2314.00 883.00 L 2327.00 888.00 L 2333.00 896.00 L 2336.00 908.00 L 2336.00 957.00 L 2347.00 961.00 L 2347.00 963.00 L 2308.00 963.00 L 2308.00 961.00 L 2319.00 957.00 L 2319.00 908.00 L 2315.00 897.00 L 2307.00 893.00 L 2300.00 893.00 L 2292.00 897.00 L 2285.00 909.00 L 2284.00 957.00 L 2295.00 961.00 L 2295.00 963.00 L 2256.00 963.00 L 2256.00 961.00 L 2267.00 957.00 Z M 1664.00 383.00 L 1666.00 407.00 L 1671.00 425.00 L 1852.00 380.00 L 1838.00 324.00 L 1822.00 277.00 L 1808.00 249.00 L 1791.00 228.00 L 1772.00 217.00 L 1748.00 215.00 L 1721.00 224.00 L 1699.00 243.00 L 1681.00 272.00 L 1671.00 300.00 L 1664.00 338.00 Z M 1784.00 887.00 L 1793.00 899.00 L 1793.00 957.00 L 1804.00 961.00 L 1804.00 963.00 L 1777.00 963.00 L 1777.00 944.00 L 1772.00 953.00 L 1758.00 963.00 L 1746.00 964.00 L 1734.00 960.00 L 1726.00 948.00 L 1726.00 938.00 L 1729.00 931.00 L 1741.00 922.00 L 1772.00 910.00 L 1777.00 903.00 L 1777.00 896.00 L 1770.00 888.00 L 1751.00 887.00 L 1743.00 907.00 L 1725.00 906.00 L 1742.00 884.00 L 1777.00 884.00 Z M 2513.00 202.00 L 2515.00 217.00 L 2519.00 222.00 L 2525.00 225.00 L 2535.00 225.00 L 2541.00 222.00 L 2546.00 217.00 L 2547.00 212.00 L 2549.00 212.00 L 2546.00 226.00 L 2536.00 237.00 L 2521.00 240.00 L 2510.00 236.00 L 2501.00 225.00 L 2499.00 208.00 L 2504.00 196.00 L 2516.00 187.00 L 2545.00 186.00 L 2545.00 201.00 L 2534.00 201.00 L 2526.00 189.00 L 2524.00 189.00 L 2516.00 195.00 Z M 2423.00 962.00 L 2384.00 963.00 L 2384.00 961.00 L 2395.00 957.00 L 2395.00 890.00 L 2384.00 886.00 L 2384.00 884.00 L 2412.00 884.00 L 2412.00 900.00 L 2419.00 890.00 L 2434.00 883.00 L 2447.00 884.00 L 2459.00 893.00 L 2463.00 904.00 L 2463.00 957.00 L 2474.00 961.00 L 2474.00 963.00 L 2435.00 963.00 L 2446.00 957.00 L 2446.00 905.00 L 2444.00 899.00 L 2435.00 893.00 L 2428.00 893.00 L 2421.00 896.00 L 2415.00 903.00 L 2412.00 912.00 L 2412.00 957.00 Z M 2026.00 963.00 L 2015.00 963.00 L 2015.00 946.00 L 2005.00 959.00 L 1993.00 964.00 L 1980.00 963.00 L 1970.00 957.00 L 1965.00 948.00 L 1963.00 937.00 L 1963.00 890.00 L 1952.00 886.00 L 1952.00 884.00 L 1980.00 884.00 L 1980.00 938.00 L 1984.00 950.00 L 1992.00 954.00 L 1999.00 954.00 L 2007.00 950.00 L 2015.00 934.00 L 2015.00 890.00 L 2004.00 886.00 L 2004.00 884.00 L 2032.00 884.00 L 2032.00 957.00 L 2043.00 961.00 L 2043.00 963.00 Z M 1776.00 918.00 L 1775.00 911.00 L 1764.00 918.00 L 1749.00 923.00 L 1742.00 932.00 L 1743.00 945.00 L 1750.00 950.00 L 1763.00 950.00 L 1768.00 948.00 L 1776.00 936.00 Z M 2507.00 853.00 L 2510.00 854.00 L 2510.00 957.00 L 2521.00 961.00 L 2521.00 963.00 L 2482.00 963.00 L 2482.00 961.00 L 2493.00 957.00 L 2493.00 859.00 L 2482.00 855.00 L 2482.00 853.00 Z M 788.00 872.00 L 787.00 950.00 L 815.00 964.00 L 722.00 964.00 L 722.00 962.00 L 749.00 950.00 L 749.00 790.00 L 722.00 778.00 L 722.00 776.00 L 788.00 776.00 Z M 2572.00 213.00 L 2570.00 229.00 L 2563.00 242.00 L 2552.00 252.00 L 2533.00 259.00 L 2516.00 259.00 L 2497.00 252.00 L 2483.00 237.00 L 2477.00 217.00 L 2479.00 198.00 L 2486.00 184.00 L 2502.00 171.00 L 2515.00 167.00 L 2539.00 168.00 L 2554.00 175.00 L 2568.00 192.00 Z M 1899.00 963.00 L 1864.00 963.00 L 1864.00 961.00 L 1875.00 957.00 L 1875.00 912.00 L 1872.00 899.00 L 1863.00 893.00 L 1856.00 893.00 L 1849.00 896.00 L 1845.00 900.00 L 1840.00 912.00 L 1840.00 957.00 L 1851.00 961.00 L 1851.00 963.00 L 1812.00 963.00 L 1812.00 961.00 L 1823.00 957.00 L 1823.00 890.00 L 1812.00 886.00 L 1812.00 884.00 L 1840.00 884.00 L 1840.00 901.00 L 1843.00 895.00 L 1855.00 885.00 L 1870.00 883.00 L 1881.00 887.00 L 1887.00 893.00 L 1891.00 903.00 L 1891.00 956.00 L 1902.00 961.00 L 1903.00 963.00 Z M 789.00 736.00 L 786.00 743.00 L 779.00 749.00 L 774.00 751.00 L 761.00 751.00 L 755.00 748.00 L 747.00 738.00 L 747.00 720.00 L 753.00 712.00 L 760.00 708.00 L 776.00 708.00 L 783.00 712.00 L 789.00 721.00 Z M 1691.00 928.00 L 1706.00 895.00 L 1690.00 886.00 L 1690.00 884.00 L 1726.00 884.00 L 1726.00 886.00 L 1710.00 895.00 L 1679.00 963.00 L 1676.00 962.00 L 1642.00 891.00 L 1630.00 886.00 L 1630.00 884.00 L 1669.00 884.00 L 1669.00 886.00 L 1660.00 889.00 L 1659.00 892.00 L 1683.00 940.00 L 1685.00 941.00 Z M 2132.00 870.00 L 2131.00 861.00 L 2134.00 857.00 L 2144.00 856.00 L 2148.00 859.00 L 2150.00 867.00 L 2145.00 874.00 L 2138.00 875.00 Z M 874.00 707.00 L 887.00 710.00 L 894.00 717.00 L 897.00 724.00 L 895.00 740.00 L 889.00 747.00 L 881.00 751.00 L 869.00 751.00 L 862.00 748.00 L 856.00 742.00 L 853.00 735.00 L 853.00 723.00 L 858.00 714.00 L 867.00 708.00 Z M 2357.00 959.00 L 2355.00 957.00 L 2355.00 951.00 L 2360.00 945.00 L 2366.00 944.00 L 2373.00 949.00 L 2374.00 957.00 L 2371.00 962.00 L 2362.00 964.00 L 2358.00 962.00 Z M 2205.00 887.00 L 2193.00 891.00 L 2187.00 897.00 L 2184.00 905.00 L 2227.00 905.00 L 2224.00 897.00 L 2218.00 890.00 L 2212.00 887.00 Z M 1937.00 862.00 L 1938.00 867.00 L 1933.00 874.00 L 1923.00 874.00 L 1919.00 869.00 L 1919.00 861.00 L 1924.00 856.00 L 1932.00 856.00 Z"/>
</svg>
